HIERARCHY
ROOT newVegas:Hips
{
	OFFSET 0.000000 96.479958 0.000000
	CHANNELS 6 Xposition Yposition Zposition Xrotation Yrotation Zrotation
	JOINT newVegas:Pelvis
	{
		OFFSET 0.000000 0.000000 0.000000
		CHANNELS 3 Xrotation Yrotation Zrotation
		JOINT newVegas:LeftUpLeg
		{
			OFFSET 18.735201 -5.666702 -4.541200
			CHANNELS 3 Xrotation Yrotation Zrotation
			JOINT newVegas:LeftLeg
			{
				OFFSET -0.021200 -31.938179 0.493100
				CHANNELS 3 Xrotation Yrotation Zrotation
				JOINT newVegas:LeftFoot
				{
					OFFSET 0.021200 -31.938179 -4.336299
					CHANNELS 3 Xrotation Yrotation Zrotation
					JOINT newVegas:LeftToeBase
					{
						OFFSET 0.943001 -26.722000 15.023500
						CHANNELS 3 Xrotation Yrotation Zrotation
						End Site
						{
							OFFSET 0.000000 30.670183 0.000000
						}
					}
				}
				JOINT newVegas:Left_PantLeg
				{
					OFFSET 0.663870 -9.044666 -1.108900
					CHANNELS 3 Xrotation Yrotation Zrotation
					End Site
					{
						OFFSET 1.415995 20.635357 0.000000
					}
				}
			}
		}
		JOINT newVegas:RightUpLeg
		{
			OFFSET -18.735201 -5.666702 -4.541200
			CHANNELS 3 Xrotation Yrotation Zrotation
			JOINT newVegas:RightLeg
			{
				OFFSET 0.018946 -31.938133 0.493100
				CHANNELS 3 Xrotation Yrotation Zrotation
				JOINT newVegas:RightFoot
				{
					OFFSET -0.018946 -31.938126 -4.336299
					CHANNELS 3 Xrotation Yrotation Zrotation
					JOINT newVegas:RightToeBase
					{
						OFFSET -0.943001 -26.722004 15.023500
						CHANNELS 3 Xrotation Yrotation Zrotation
						End Site
						{
							OFFSET 0.000000 30.670187 0.000000
						}
					}
				}
				JOINT newVegas:Right_PantLeg
				{
					OFFSET -0.661674 -9.044716 -1.108900
					CHANNELS 3 Xrotation Yrotation Zrotation
					End Site
					{
						OFFSET -1.415958 20.635269 0.000000
					}
				}
			}
		}
	}
	JOINT newVegas:Spine
	{
		OFFSET 0.000000 10.199997 -0.299500
		CHANNELS 3 Xrotation Yrotation Zrotation
		JOINT newVegas:Spine1
		{
			OFFSET 0.000000 11.900002 -1.516600
			CHANNELS 3 Xrotation Yrotation Zrotation
			JOINT newVegas:Spine2
			{
				OFFSET 0.000000 13.600006 -2.842500
				CHANNELS 3 Xrotation Yrotation Zrotation
				JOINT newVegas:Neck
				{
					OFFSET 0.000000 9.624100 -2.890100
					CHANNELS 3 Xrotation Yrotation Zrotation
					JOINT newVegas:Head
					{
						OFFSET 0.000000 14.068802 -1.351900
						CHANNELS 3 Xrotation Yrotation Zrotation
						JOINT newVegas:Hair_Back
						{
							OFFSET 0.000000 3.231903 -17.524799
							CHANNELS 3 Xrotation Yrotation Zrotation
							End Site
							{
								OFFSET 0.000000 19.849884 0.000000
							}
						}
						JOINT newVegas:Hair_Front
						{
							OFFSET 0.000000 31.260406 4.573800
							CHANNELS 3 Xrotation Yrotation Zrotation
							JOINT newVegas:Hair_Front1
							{
								OFFSET 0.000000 2.284103 11.993300
								CHANNELS 3 Xrotation Yrotation Zrotation
								JOINT newVegas:Hair_Front2
								{
									OFFSET 0.000000 2.284103 11.993300
									CHANNELS 3 Xrotation Yrotation Zrotation
									End Site
									{
										OFFSET 0.000000 12.208862 0.000000
									}
								}
							}
						}
						JOINT newVegas:Jowel
						{
							OFFSET 0.000000 -7.458206 6.864100
							CHANNELS 3 Xrotation Yrotation Zrotation
							End Site
							{
								OFFSET 0.000000 19.849884 0.000000
							}
						}
					}
				}
				JOINT newVegas:LeftShoulder
				{
					OFFSET 15.263000 10.923401 -0.547700
					CHANNELS 3 Xrotation Yrotation Zrotation
					JOINT newVegas:LeftArm
					{
						OFFSET 25.438599 -2.830597 -13.032500
						CHANNELS 3 Xrotation Yrotation Zrotation
						JOINT newVegas:LeftForeArm
						{
							OFFSET 29.960503 0.000000 0.000000
							CHANNELS 3 Xrotation Yrotation Zrotation
							JOINT newVegas:LeftHand
							{
								OFFSET 27.849251 0.000000 0.000000
								CHANNELS 3 Xrotation Yrotation Zrotation
								JOINT newVegas:LeftHandThumb1
								{
									OFFSET 4.487587 -3.305161 6.305391
									CHANNELS 3 Xrotation Yrotation Zrotation
									JOINT newVegas:LeftHandThumb2
									{
										OFFSET 5.480453 -3.164139 3.164143
										CHANNELS 3 Xrotation Yrotation Zrotation
										JOINT newVegas:LeftHandThumb3
										{
											OFFSET 5.159721 -2.978973 2.978967
											CHANNELS 3 Xrotation Yrotation Zrotation
											End Site
											{
												OFFSET 2.494507 5.926697 1.738678
											}
										}
									}
								}
								JOINT newVegas:LeftHandIndex1
								{
									OFFSET 18.578728 -0.527832 5.208049
									CHANNELS 3 Xrotation Yrotation Zrotation
									JOINT newVegas:LeftHandIndex2
									{
										OFFSET 3.192009 0.000000 0.000000
										CHANNELS 3 Xrotation Yrotation Zrotation
										JOINT newVegas:LeftHandIndex3
										{
											OFFSET 3.835129 0.000000 0.000000
											CHANNELS 3 Xrotation Yrotation Zrotation
											End Site
											{
												OFFSET -0.034599 3.816971 0.371180
											}
										}
									}
								}
								JOINT newVegas:LeftHandMiddle1
								{
									OFFSET 18.476105 0.000000 0.000000
									CHANNELS 3 Xrotation Yrotation Zrotation
									JOINT newVegas:LeftHandMiddle2
									{
										OFFSET 3.324875 0.000000 0.000000
										CHANNELS 3 Xrotation Yrotation Zrotation
										JOINT newVegas:LeftHandMiddle3
										{
											OFFSET 4.596550 0.000000 0.000000
											CHANNELS 3 Xrotation Yrotation Zrotation
											End Site
											{
												OFFSET 0.057701 4.578827 0.399218
											}
										}
									}
								}
								JOINT newVegas:LeftHandRing1
								{
									OFFSET 17.732719 0.121887 -4.201567
									CHANNELS 3 Xrotation Yrotation Zrotation
									JOINT newVegas:LeftHandRing2
									{
										OFFSET 2.733170 0.000000 0.000000
										CHANNELS 3 Xrotation Yrotation Zrotation
										JOINT newVegas:LeftHandRing3
										{
											OFFSET 3.178268 0.000000 0.000000
											CHANNELS 3 Xrotation Yrotation Zrotation
											End Site
											{
												OFFSET 0.119102 3.170624 0.185394
											}
										}
									}
								}
								JOINT newVegas:LeftHandPinky1
								{
									OFFSET 15.989624 -0.606689 -7.535461
									CHANNELS 3 Xrotation Yrotation Zrotation
									JOINT newVegas:LeftHandPinky2
									{
										OFFSET 2.538986 0.000000 0.000000
										CHANNELS 3 Xrotation Yrotation Zrotation
										JOINT newVegas:LeftHandPinky3
										{
											OFFSET 2.593102 0.000000 0.000000
											CHANNELS 3 Xrotation Yrotation Zrotation
											End Site
											{
												OFFSET -0.150902 2.584198 0.152708
											}
										}
									}
								}
							}
							JOINT newVegas:Left_Sleeve
							{
								OFFSET 0.267448 -0.649796 0.577675
								CHANNELS 3 Xrotation Yrotation Zrotation
								End Site
								{
									OFFSET 0.000000 15.991241 0.000000
								}
							}
							JOINT newVegas:Left_CapeC
							{
								OFFSET 15.715958 -8.608795 -6.935905
								CHANNELS 3 Xrotation Yrotation Zrotation
								JOINT newVegas:Left_CapeC1
								{
									OFFSET 0.000000 -8.688499 0.000000
									CHANNELS 3 Xrotation Yrotation Zrotation
									End Site
									{
										OFFSET 0.000000 8.688499 0.000000
									}
								}
							}
						}
						JOINT newVegas:Left_CapeB
						{
							OFFSET 26.118385 -8.608795 -7.079235
							CHANNELS 3 Xrotation Yrotation Zrotation
							JOINT newVegas:Left_CapeB1
							{
								OFFSET 0.000000 -8.688499 0.000000
								CHANNELS 3 Xrotation Yrotation Zrotation
								End Site
								{
									OFFSET 0.000000 8.688499 0.000000
								}
							}
						}
						JOINT newVegas:Left_CapeA
						{
							OFFSET 5.115639 -8.608795 -10.395809
							CHANNELS 3 Xrotation Yrotation Zrotation
							JOINT newVegas:Left_CapeA1
							{
								OFFSET 0.000000 -8.688499 0.000000
								CHANNELS 3 Xrotation Yrotation Zrotation
								End Site
								{
									OFFSET 0.000000 8.688499 0.000000
								}
							}
						}
					}
				}
				JOINT newVegas:RightShoulder
				{
					OFFSET -15.263000 10.923401 -0.547700
					CHANNELS 3 Xrotation Yrotation Zrotation
					JOINT newVegas:RightArm
					{
						OFFSET -25.438599 -2.830597 -13.032500
						CHANNELS 3 Xrotation Yrotation Zrotation
						JOINT newVegas:RightForeArm
						{
							OFFSET -29.960503 0.000000 0.000000
							CHANNELS 3 Xrotation Yrotation Zrotation
							JOINT newVegas:RightHand
							{
								OFFSET -27.849251 0.000000 0.000000
								CHANNELS 3 Xrotation Yrotation Zrotation
								JOINT newVegas:RightHandThumb1
								{
									OFFSET -4.487587 -3.305161 6.305391
									CHANNELS 3 Xrotation Yrotation Zrotation
									JOINT newVegas:RightHandThumb2
									{
										OFFSET -5.480453 -3.164139 3.164143
										CHANNELS 3 Xrotation Yrotation Zrotation
										JOINT newVegas:RightHandThumb3
										{
											OFFSET -5.159721 -2.978973 2.978967
											CHANNELS 3 Xrotation Yrotation Zrotation
											End Site
											{
												OFFSET -2.494507 5.926697 1.738678
											}
										}
									}
								}
								JOINT newVegas:RightHandIndex1
								{
									OFFSET -18.578728 -0.527832 5.208049
									CHANNELS 3 Xrotation Yrotation Zrotation
									JOINT newVegas:RightHandIndex2
									{
										OFFSET -3.192009 0.000000 0.000000
										CHANNELS 3 Xrotation Yrotation Zrotation
										JOINT newVegas:RightHandIndex3
										{
											OFFSET -3.835129 0.000000 0.000000
											CHANNELS 3 Xrotation Yrotation Zrotation
											End Site
											{
												OFFSET 0.034599 3.816971 0.371180
											}
										}
									}
								}
								JOINT newVegas:RightHandMiddle1
								{
									OFFSET -18.476105 0.000000 0.000000
									CHANNELS 3 Xrotation Yrotation Zrotation
									JOINT newVegas:RightHandMiddle2
									{
										OFFSET -3.324875 0.000000 0.000000
										CHANNELS 3 Xrotation Yrotation Zrotation
										JOINT newVegas:RightHandMiddle3
										{
											OFFSET -4.596550 0.000000 0.000000
											CHANNELS 3 Xrotation Yrotation Zrotation
											End Site
											{
												OFFSET -0.057701 4.578827 0.399218
											}
										}
									}
								}
								JOINT newVegas:RightHandRing1
								{
									OFFSET -17.732719 0.121887 -4.201567
									CHANNELS 3 Xrotation Yrotation Zrotation
									JOINT newVegas:RightHandRing2
									{
										OFFSET -2.733170 0.000000 0.000000
										CHANNELS 3 Xrotation Yrotation Zrotation
										JOINT newVegas:RightHandRing3
										{
											OFFSET -3.178268 0.000000 0.000000
											CHANNELS 3 Xrotation Yrotation Zrotation
											End Site
											{
												OFFSET -0.119102 3.170624 0.185394
											}
										}
									}
								}
								JOINT newVegas:RightHandPinky1
								{
									OFFSET -15.989624 -0.606689 -7.535461
									CHANNELS 3 Xrotation Yrotation Zrotation
									JOINT newVegas:RightHandPinky2
									{
										OFFSET -2.538986 0.000000 0.000000
										CHANNELS 3 Xrotation Yrotation Zrotation
										JOINT newVegas:RightHandPinky3
										{
											OFFSET -2.593102 0.000000 0.000000
											CHANNELS 3 Xrotation Yrotation Zrotation
											End Site
											{
												OFFSET 0.150902 2.584198 0.152708
											}
										}
									}
								}
							}
							JOINT newVegas:Right_CapeC
							{
								OFFSET -15.715958 -8.608795 -6.935905
								CHANNELS 3 Xrotation Yrotation Zrotation
								JOINT newVegas:Right_CapeC1
								{
									OFFSET 0.000000 -8.688499 0.000000
									CHANNELS 3 Xrotation Yrotation Zrotation
									End Site
									{
										OFFSET 0.000000 8.688499 0.000000
									}
								}
							}
							JOINT newVegas:Right_Sleeve
							{
								OFFSET -0.267448 -0.649994 0.577675
								CHANNELS 3 Xrotation Yrotation Zrotation
								End Site
								{
									OFFSET 0.000000 15.991302 0.000000
								}
							}
						}
						JOINT newVegas:Right_CapeA
						{
							OFFSET -5.115540 -8.608795 -10.395824
							CHANNELS 3 Xrotation Yrotation Zrotation
							JOINT newVegas:Right_CapeA1
							{
								OFFSET 0.000000 -8.688499 0.000000
								CHANNELS 3 Xrotation Yrotation Zrotation
								End Site
								{
									OFFSET 0.000000 8.688499 0.000000
								}
							}
						}
						JOINT newVegas:Right_CapeB
						{
							OFFSET -26.118187 -8.608795 -7.079266
							CHANNELS 3 Xrotation Yrotation Zrotation
							JOINT newVegas:Right_CapeB1
							{
								OFFSET 0.000000 -8.688499 0.000000
								CHANNELS 3 Xrotation Yrotation Zrotation
								End Site
								{
									OFFSET 0.000000 8.688499 0.000000
								}
							}
						}
					}
				}
				JOINT newVegas:Left_Collar
				{
					OFFSET 18.625099 8.655502 8.828100
					CHANNELS 3 Xrotation Yrotation Zrotation
					JOINT newVegas:Left_Collar1
					{
						OFFSET 14.783401 10.540405 -1.259500
						CHANNELS 3 Xrotation Yrotation Zrotation
						End Site
						{
							OFFSET 0.000000 18.199875 0.000000
						}
					}
				}
				JOINT newVegas:Collar_Back
				{
					OFFSET 0.000000 15.630707 -20.132601
					CHANNELS 3 Xrotation Yrotation Zrotation
					End Site
					{
						OFFSET 0.000000 22.523010 0.000000
					}
				}
				JOINT newVegas:Left_Peck
				{
					OFFSET 17.239599 -5.132599 25.482599
					CHANNELS 3 Xrotation Yrotation Zrotation
					End Site
					{
						OFFSET 0.000000 22.523010 0.000000
					}
				}
				JOINT newVegas:Right_Peck
				{
					OFFSET -17.239599 -5.132202 25.482599
					CHANNELS 3 Xrotation Yrotation Zrotation
					End Site
					{
						OFFSET 0.000000 22.523010 0.000000
					}
				}
				JOINT newVegas:Right_Collar
				{
					OFFSET -18.625099 8.655792 8.828100
					CHANNELS 3 Xrotation Yrotation Zrotation
					JOINT newVegas:Right_Collar1
					{
						OFFSET -14.783401 10.539993 -1.259500
						CHANNELS 3 Xrotation Yrotation Zrotation
						End Site
						{
							OFFSET 0.000000 18.199631 0.000000
						}
					}
				}
			}
		}
		JOINT newVegas:Belly
		{
			OFFSET 0.000000 -6.540398 9.014299
			CHANNELS 3 Xrotation Yrotation Zrotation
			End Site
			{
				OFFSET 0.000000 11.566666 0.000000
			}
		}
	}
	JOINT newVegas:ElvisFacialAnim_Joint
	{
		OFFSET 1.000000 -95.330101 -8.825800
		CHANNELS 3 Xrotation Yrotation Zrotation
		End Site
		{
			OFFSET 0.000000 35.315800 0.000000
		}
	}
}
MOTION
Frames: 4
Frame Time: 0.033333
-14.520927 46.280312 12.848056 -72.238642 -57.755888 -68.573883 -0.000000 0.000001 0.000001 -90.620512 12.391569 -6.973787 92.894527 1.197903 -0.820720 29.635651 -7.187395 8.069516 -0.000000 -0.000001 0.000000 0.000002 0.000000 -0.000000 0.853724 44.225243 -35.188240 140.891776 32.409548 4.886271 -70.517120 -18.942826 17.115093 0.000002 -0.000000 -0.000000 0.000000 0.000000 -0.000001 68.970567 1.313664 0.407984 10.698945 -0.354093 -2.920254 17.490608 -0.713277 -2.905007 0.336653 2.112292 1.902092 0.336660 2.112270 1.902132 0.000001 -0.000001 0.000001 0.336679 2.112289 1.902103 0.336656 2.112306 1.902098 0.000002 0.000001 -0.000001 0.000001 -0.000001 0.000000 -37.559039 -4.830603 1.310667 -73.285915 -19.463812 -69.165412 -0.000025 -49.482627 -0.000025 -122.217534 3.139989 22.355305 4.709223 9.560380 3.111990 19.473185 -1.474902 7.636914 -0.000001 0.000001 -0.000003 -0.212820 3.933722 -36.747128 2.942143 5.078908 -60.144610 -0.000000 -0.000001 0.000001 0.405911 5.507036 -52.453172 3.387141 5.308607 -65.057477 0.000001 -0.000000 -0.000001 -0.074376 5.736766 -61.061434 4.055050 5.569501 -72.094894 -0.000001 -0.000002 -0.000001 -6.565549 4.545178 -72.425229 3.299621 5.267179 -64.107841 0.000001 -0.000003 -0.000000 0.000003 0.000000 0.000000 0.000003 0.000000 0.000000 0.000002 0.000000 0.000000 0.000002 -0.000004 -0.000001 0.000002 -0.000005 -0.000003 0.000002 -0.000004 -0.000001 0.000000 -0.000005 -0.000002 -42.139825 -9.769756 -7.575438 -51.815652 45.272123 94.913873 0.001361 103.657437 -0.001351 -37.420031 -24.461418 -24.583514 8.377115 -4.904136 11.021997 21.620204 -18.183888 -18.379207 -0.000000 -0.000001 0.000003 -0.920050 1.683595 12.434967 0.748122 -2.533476 32.898303 0.000000 -0.000000 0.000000 3.413050 -7.186245 51.650253 6.296792 -4.359571 110.634667 -0.000001 -0.000001 0.000002 -3.349057 -2.600410 57.010568 5.440864 -4.590874 99.698161 0.000000 0.000001 0.000000 -3.996438 -3.303948 64.593837 4.058822 -4.618631 82.610510 -0.000000 -0.000002 -0.000001 0.000000 -0.000000 0.000003 -0.000000 -0.000000 0.000003 0.000000 -0.000000 0.000003 0.000001 -0.000001 -0.000001 0.000001 0.000000 0.000001 0.000001 -0.000001 -0.000001 0.000001 -0.000000 0.000001 -0.000003 -0.000000 0.000001 -0.000003 -0.000000 0.000001 -0.000003 -0.000000 0.000001 -0.000003 -0.000000 0.000001 -0.000003 -0.000000 0.000001 -0.000003 -0.000000 0.000001 -0.000003 -0.000000 0.000001 -0.000002 -0.000000 -0.000000 -0.000000 0.000001 0.000001 
-14.346565 46.409966 12.213376 -70.994714 -57.422705 -67.189657 0.000002 -0.000000 0.000000 -90.199348 12.145619 -6.882062 92.140550 1.080868 -0.798349 30.038513 -7.896218 7.905048 -0.000000 -0.000000 -0.000000 0.000001 -0.000000 -0.000000 0.321531 43.634913 -34.212431 140.904713 32.980911 4.964990 -70.843999 -18.642434 16.682365 0.000001 0.000000 0.000000 0.000001 -0.000000 -0.000001 68.735991 1.352088 0.228826 10.637427 -0.351328 -2.970500 17.428496 -0.722898 -2.953676 0.241329 2.084874 1.784943 0.241304 2.084862 1.784956 0.000000 0.000001 -0.000001 0.241345 2.084890 1.784942 0.241309 2.084842 1.784971 -0.000001 -0.000001 -0.000000 0.000000 0.000001 -0.000001 -37.559036 -4.830604 1.310667 -73.285915 -19.463812 -69.165412 -0.000025 -49.482627 -0.000020 -122.217547 3.139989 22.355306 4.709221 9.560381 3.111989 19.473185 -1.474901 7.636912 -0.000000 -0.000000 -0.000005 -0.212819 3.933722 -36.747131 2.942142 5.078907 -60.144617 0.000000 -0.000001 -0.000000 0.405912 5.507037 -52.453172 3.387141 5.308610 -65.057463 0.000000 -0.000000 -0.000002 -0.074379 5.736766 -61.061434 4.055049 5.569500 -72.094887 0.000001 0.000001 0.000001 -6.565552 4.545178 -72.425229 3.299615 5.267170 -64.107841 -0.000000 -0.000005 -0.000003 -0.000001 0.000000 0.000001 -0.000001 0.000000 0.000001 -0.000002 0.000000 0.000001 -0.000000 0.000003 0.000002 -0.000000 0.000003 0.000002 -0.000000 0.000003 0.000002 -0.000001 0.000002 0.000002 -42.139829 -9.769753 -7.575440 -51.815652 45.272130 94.913873 0.001362 103.657444 -0.001341 -37.420028 -24.461416 -24.583514 8.377114 -4.904137 11.021998 21.620202 -18.183890 -18.379202 -0.000001 -0.000001 0.000001 -0.920048 1.683596 12.434972 0.748123 -2.533477 32.898306 -0.000001 0.000000 -0.000001 3.413052 -7.186244 51.650249 6.296792 -4.359571 110.634673 0.000001 0.000001 0.000002 -3.349053 -2.600408 57.010568 5.440868 -4.590874 99.698161 0.000001 -0.000001 0.000002 -3.996439 -3.303949 64.593837 4.058822 -4.618631 82.610503 0.000000 -0.000000 0.000001 0.000000 0.000000 -0.000000 0.000000 -0.000000 -0.000002 0.000000 -0.000000 -0.000003 0.000000 -0.000003 0.000001 0.000000 -0.000002 0.000002 0.000000 -0.000003 0.000001 0.000000 -0.000002 0.000002 -0.000001 0.000000 0.000001 -0.000001 0.000000 0.000001 -0.000001 0.000000 0.000001 -0.000001 0.000000 0.000001 -0.000001 0.000000 0.000001 -0.000001 0.000000 0.000001 -0.000001 0.000000 0.000001 0.000002 0.000000 0.000000 0.000002 -0.000000 0.000000 
-14.101665 46.565613 11.388433 -69.275508 -57.020704 -65.093485 -0.000002 -0.000001 0.000000 -89.627846 11.968009 -6.818648 91.082089 1.321646 -0.804150 30.467428 -8.838386 7.739586 -0.000000 0.000000 0.000000 -0.000002 0.000000 -0.000000 -0.196390 42.996813 -33.228631 140.981593 33.785299 5.082303 -71.342986 -18.226749 16.089288 0.000002 0.000000 -0.000001 0.000000 0.000002 -0.000001 68.426823 1.318862 0.088302 10.562784 -0.363374 -3.021691 17.353182 -0.745297 -3.002131 0.132110 2.046219 1.705280 0.132134 2.046212 1.705289 0.000000 0.000000 -0.000001 0.132099 2.046210 1.705299 0.132155 2.046238 1.705287 0.000000 0.000000 -0.000000 0.000000 0.000000 -0.000000 -37.559036 -4.830603 1.310665 -73.285915 -19.463814 -69.165405 -0.000025 -49.482634 -0.000020 -122.217534 3.139990 22.355300 4.709224 9.560380 3.111990 19.473185 -1.474900 7.636913 0.000002 -0.000000 -0.000003 -0.212820 3.933723 -36.747131 2.942142 5.078907 -60.144617 -0.000000 -0.000001 -0.000001 0.405911 5.507038 -52.453172 3.387141 5.308609 -65.057470 0.000000 0.000000 -0.000002 -0.074380 5.736768 -61.061440 4.055049 5.569504 -72.094887 -0.000000 0.000001 0.000002 -6.565555 4.545181 -72.425229 3.299618 5.267177 -64.107841 -0.000001 -0.000005 0.000001 0.000003 0.000000 0.000000 0.000003 0.000000 0.000000 0.000002 0.000000 0.000000 -0.000000 0.000000 0.000001 -0.000000 -0.000001 0.000000 -0.000000 0.000000 0.000001 -0.000001 -0.000002 -0.000000 -42.139829 -9.769755 -7.575439 -51.815652 45.272126 94.913873 0.001337 103.657444 -0.001340 -37.420028 -24.461416 -24.583516 8.377115 -4.904139 11.022003 21.620204 -18.183888 -18.379204 0.000001 -0.000001 -0.000000 -0.920050 1.683595 12.434968 0.748124 -2.533476 32.898306 -0.000000 -0.000000 -0.000000 3.413052 -7.186244 51.650249 6.296792 -4.359571 110.634673 0.000001 -0.000002 -0.000000 -3.349058 -2.600409 57.010568 5.440867 -4.590873 99.698161 0.000001 0.000001 0.000001 -3.996440 -3.303952 64.593837 4.058822 -4.618632 82.610510 -0.000001 0.000002 -0.000000 0.000002 0.000001 0.000001 0.000000 0.000001 0.000002 0.000001 0.000002 0.000001 0.000002 0.000000 0.000000 0.000002 0.000001 0.000000 0.000002 0.000000 0.000000 0.000003 0.000001 0.000000 0.000000 0.000001 -0.000001 0.000000 0.000001 -0.000001 0.000000 0.000001 -0.000001 0.000000 0.000001 -0.000001 0.000000 0.000001 -0.000001 0.000000 0.000001 -0.000001 0.000000 0.000001 -0.000001 -0.000001 -0.000000 -0.000000 -0.000002 -0.000001 0.000000 
-13.619617 46.753586 10.400130 -67.257153 -56.290929 -62.313844 0.000001 -0.000001 0.000001 -89.104913 12.012479 -6.702951 90.421794 0.944373 -0.868316 29.528936 -10.035712 7.177738 -0.000000 -0.000000 -0.000000 -0.000002 -0.000000 0.000000 -0.739303 42.662905 -32.298745 141.210883 34.690924 5.215816 -71.539340 -17.845724 15.649649 -0.000000 -0.000000 -0.000000 0.000001 0.000000 0.000000 68.070403 1.205364 0.033153 10.482061 -0.385572 -3.064344 17.271880 -0.773616 -3.041907 0.007076 1.987123 1.659958 0.007091 1.987097 1.659962 -0.000000 0.000001 -0.000001 0.007107 1.987121 1.659957 0.007053 1.987142 1.659951 0.000002 0.000000 0.000000 -0.000000 0.000001 -0.000001 -37.559033 -4.830603 1.310668 -73.285908 -19.463814 -69.165412 -0.000026 -49.482630 -0.000018 -122.217534 3.139988 22.355303 4.709225 9.560379 3.111989 19.473185 -1.474897 7.636916 -0.000001 -0.000002 -0.000005 -0.212817 3.933722 -36.747128 2.942144 5.078908 -60.144617 -0.000000 -0.000001 -0.000000 0.405913 5.507036 -52.453175 3.387141 5.308607 -65.057470 -0.000000 -0.000000 -0.000000 -0.074377 5.736766 -61.061440 4.055050 5.569501 -72.094894 0.000001 -0.000001 0.000005 -6.565553 4.545181 -72.425229 3.299617 5.267180 -64.107841 0.000001 -0.000005 -0.000005 0.000000 0.000001 0.000001 0.000000 0.000001 0.000001 -0.000000 0.000001 0.000001 -0.000001 -0.000001 0.000002 -0.000001 -0.000002 0.000001 -0.000001 -0.000001 0.000002 -0.000002 -0.000003 0.000001 -42.139825 -9.769755 -7.575436 -51.815652 45.272123 94.913873 0.001361 103.657444 -0.001343 -37.420028 -24.461414 -24.583516 8.377113 -4.904138 11.022003 21.620204 -18.183891 -18.379204 0.000001 -0.000003 0.000001 -0.920050 1.683594 12.434972 0.748121 -2.533477 32.898310 -0.000000 0.000000 -0.000000 3.413051 -7.186246 51.650249 6.296789 -4.359572 110.634667 0.000001 0.000001 -0.000001 -3.349055 -2.600409 57.010571 5.440866 -4.590870 99.698168 -0.000000 0.000001 0.000001 -3.996439 -3.303951 64.593837 4.058819 -4.618629 82.610510 -0.000000 0.000002 -0.000001 0.000000 0.000001 0.000003 0.000001 0.000001 0.000003 0.000000 0.000001 0.000003 0.000001 0.000001 -0.000001 0.000001 0.000002 -0.000001 0.000001 0.000001 -0.000001 0.000001 0.000002 -0.000001 0.000001 0.000000 -0.000001 0.000001 0.000000 -0.000001 0.000001 0.000000 -0.000001 0.000001 0.000000 -0.000001 0.000001 0.000000 -0.000001 0.000001 0.000000 -0.000001 0.000001 0.000000 -0.000001 0.000000 0.000001 -0.000001 0.000001 -0.000001 0.000001 
